<svg id="kity_svg_6" xmlns="http://www.w3.org/2000/svg" xmlns:xlink="http://www.w3.org/1999/xlink" version="1.1" width="630" height="346" style="font-family: Arial, &quot;Microsoft Yahei&quot;,  &quot;Heiti SC&quot;; background: #fbfbfb" viewBox="514 111 630 346"><defs id="kity_defs_7"><linearGradient id="kity_linearGradient_17" x1="0" y1="0" x2="0" y2="1"><stop id="kity_stop_18" offset="0" stop-color="rgb(255, 255, 255)"></stop><stop id="kity_stop_19" offset="1" stop-color="rgb(204, 204, 204)"></stop></linearGradient><marker id="kity_marker_2" orient="auto" refX="6" refY="0" viewBox="-7 -7 14 14" markerWidth="7" markerHeight="7" markerUnits="userSpaceOnUse"><path id="kity_path_3" fill="rgb(115, 161, 191)" stroke="none" d="M6,0A6,6,0,1,1,-6,0A6,6,0,1,1,6,0"></path></marker></defs><g id="kity_g_8" transform="translate(0.5, 0.5)"><g id="minder1" text-rendering="optimize-speed" transform="translate( 760 417 )"><g id="minder_connect_group1"><path id="kity_path_31" fill="none" stroke="rgb(115, 161, 191)" stroke-width="1" marker-end="url(#kity_marker_2)" d="M31 0A12,155,0,0,0,19 -155" transform="translate( 0 0 )"></path><path id="kity_path_56" fill="none" stroke="rgb(115, 161, 191)" stroke-width="1" marker-end="url(#kity_marker_2)" d="M31 0A173,33,0,0,0,-142 -33" transform="translate( 0 0 )"></path><path id="kity_path_64" fill="none" stroke="rgb(115, 161, 191)" stroke-width="1" marker-end="url(#kity_marker_2)" d="M31 0A63,106,0,0,0,-32 -106" transform="translate( 0 0 )"></path><path id="kity_path_72" fill="none" stroke="rgb(115, 161, 191)" stroke-width="1" marker-end="url(#kity_marker_2)" d="M31 0A111,118,0,0,1,142 -118" transform="translate( 0 0 )"></path><path id="kity_path_88" fill="none" stroke="rgb(115, 161, 191)" stroke-width="1" d="M-102 -106C-119,-106,-119,-149,-136 -149L-202 -149" transform="translate( 0 0 )"></path><path id="kity_path_89" fill="none" stroke="rgb(115, 161, 191)" stroke-width="1" d="M218 -209C238,-209,238,-251,258 -251L364 -251" transform="translate( 0 0 )"></path><path id="kity_path_90" fill="none" stroke="rgb(115, 161, 191)" stroke-width="1" d="M117 -155C133,-155,133,-209,149 -209L218 -209" transform="translate( 0 0 )"></path></g><g id="minder_node1" transform="matrix( 1 0 0 1 0 0 )"><path id="node_outline1" fill="rgb(115, 161, 191)" stroke="rgb(115, 161, 191)" d="M-19,-20h100a5,5,0,0,1,5,5v30a5,5,0,0,1,-5,5h-100a5,5,0,0,1,-5,-5v-30a5,5,0,0,1,5,-5z" stroke-width="3"></path><g id="node_text1" transform="translate( 0 -2.4 )" fill="white"><text id="kity_text_22" text-rendering="inherit" dominant-baseline="text-before-edge" font-size="16" dy="0" y="-8">IT技能树</text></g></g><g id="kity_g_14" display="none"><path id="kity_path_15" fill="rgba(0, 92, 153, 0.5)" stroke="none" d="M109,-143h82v20h-82z"></path><path id="kity_path_16" fill="none" stroke="rgb(0, 76, 128)" d="M109,-123L191,-123" stroke-width="1"></path></g><g id="minder_node2" transform="matrix( 1 0 0 1 41 -155 )" opacity="1"><g id="node_expander1" transform="translate( -27 0 )" style="cursor: pointer;"><path id="kity_path_36" fill="white" stroke="gray" d="M6,0A6,6,0,1,1,-6,0A6,6,0,1,1,6,0"></path><path id="kity_path_37" fill="none" stroke="gray" d="M-4.5,0L4.5,0"></path></g><path id="node_outline2" fill="rgb(238, 243, 246)" stroke="rgb(115, 161, 191)" d="M-17,-13h90a3,3,0,0,1,3,3v20a3,3,0,0,1,-3,3h-90a3,3,0,0,1,-3,-3v-20a3,3,0,0,1,3,-3z" stroke-width="1"></path><g id="node_text2" transform="translate( 0 -2.1 )" fill="black"><text id="kity_text_33" text-rendering="inherit" dominant-baseline="text-before-edge" font-size="14" dy="0" y="-7">编程语言</text></g></g><g id="minder_node5" transform="matrix( 1 0 0 1 -206 -33 )" opacity="1"><g id="node_expander4" transform="translate( 69 0 )" style="cursor: pointer;" display="none"><path id="kity_path_61" fill="white" stroke="gray" d="M6,0A6,6,0,1,1,-6,0A6,6,0,1,1,6,0"></path><path id="kity_path_62" fill="none" stroke="gray"></path></g><path id="node_outline5" fill="rgb(238, 243, 246)" stroke="rgb(115, 161, 191)" d="M-17,-13h76a3,3,0,0,1,3,3v20a3,3,0,0,1,-3,3h-76a3,3,0,0,1,-3,-3v-20a3,3,0,0,1,3,-3z" stroke-width="1"></path><g id="node_text5" transform="translate( 0 -2.1 )" fill="black"><text id="kity_text_58" text-rendering="inherit" dominant-baseline="text-before-edge" font-size="14" dy="0" y="-7">Quant</text></g></g><g id="minder_node6" transform="matrix( 1 0 0 1 -82 -106 )" opacity="1"><g id="node_expander5" transform="translate( 55 0 )" style="cursor: pointer;"><path id="kity_path_69" fill="white" stroke="gray" d="M6,0A6,6,0,1,1,-6,0A6,6,0,1,1,6,0"></path><path id="kity_path_70" fill="none" stroke="gray" d="M-4.5,0L4.5,0"></path></g><path id="node_outline6" fill="rgb(238, 243, 246)" stroke="rgb(115, 161, 191)" d="M-17,-13h62a3,3,0,0,1,3,3v20a3,3,0,0,1,-3,3h-62a3,3,0,0,1,-3,-3v-20a3,3,0,0,1,3,-3z" stroke-width="1"></path><g id="node_text6" transform="translate( 0 -2.1 )" fill="black"><text id="kity_text_66" text-rendering="inherit" dominant-baseline="text-before-edge" font-size="14" dy="0" y="-7">英语</text></g></g><g id="minder_node7" transform="matrix( 1 0 0 1 164 -118 )" opacity="1"><g id="node_expander6" transform="translate( -27 0 )" style="cursor: pointer;" display="none"><path id="kity_path_77" fill="white" stroke="gray" d="M6,0A6,6,0,1,1,-6,0A6,6,0,1,1,6,0"></path><path id="kity_path_78" fill="none" stroke="gray"></path></g><path id="node_outline7" fill="rgb(238, 243, 246)" stroke="rgb(115, 161, 191)" d="M-17,-13h90a3,3,0,0,1,3,3v20a3,3,0,0,1,-3,3h-90a3,3,0,0,1,-3,-3v-20a3,3,0,0,1,3,-3z" stroke-width="1"></path><g id="node_text7" transform="translate( 0 -2.1 )" fill="black"><text id="kity_text_74" text-rendering="inherit" dominant-baseline="text-before-edge" font-size="14" dy="0" y="-7">机器学习</text></g></g><g id="kity_g_12" display="none"><path id="kity_path_13" fill="none" stroke="rgb(66, 94, 112)" d="M-96,-139h62a3,3,0,0,1,3,3v20a3,3,0,0,1,-3,3h-62a3,3,0,0,1,-3,-3v-20a3,3,0,0,1,3,-3z" stroke-width="5"></path></g><g id="minder_node8" transform="matrix( 1 0 0 1 -192 -163 )" opacity="1"><g id="node_expander7" transform="translate( 52 0 )" style="cursor: pointer;" display="none"><path id="kity_path_86" fill="white" stroke="gray" d="M6,0A6,6,0,1,1,-6,0A6,6,0,1,1,6,0"></path><path id="kity_path_87" fill="none" stroke="gray"></path></g><path id="node_outline8" fill="transparent" stroke="none" d="M-5,-11h46a5,5,0,0,1,5,5v12a5,5,0,0,1,-5,5h-46a5,5,0,0,1,-5,-5v-12a5,5,0,0,1,5,-5z" stroke-width="3"></path><g id="node_text8" transform="translate( 0 -1.7999999999999998 )" fill="black"><text id="kity_text_83" text-rendering="inherit" dominant-baseline="text-before-edge" font-size="12" dy="0" y="-6">百词斩</text></g></g><g id="minder_node4" transform="matrix( 1 0 0 1 278 -270 )" opacity="1"><g id="node_expander3" transform="translate( -16 0 )" style="cursor: pointer;" display="none"><path id="kity_path_53" fill="white" stroke="gray" d="M6,0A6,6,0,1,1,-6,0A6,6,0,1,1,6,0"></path><path id="kity_path_54" fill="none" stroke="gray"></path></g><path id="node_outline4" fill="transparent" stroke="none" d="M-5,-16h86a5,5,0,0,1,5,5v22a5,5,0,0,1,-5,5h-86a5,5,0,0,1,-5,-5v-22a5,5,0,0,1,5,-5z" stroke-width="3"></path><g id="node_text4" transform="translate( 0 -1.7999999999999998 )" fill="black"><text id="kity_text_50" text-rendering="inherit" dominant-baseline="text-before-edge" font-size="12" dy="0" y="-6">CPython</text></g><a id="kity_a_91" xmlns:xlink="http://www.w3.org/1999/xlink" xlink:href="http://jaminjiang.github.io/" target="_blank" xlink:title="我的个人主页(http://jaminjiang.github.io/)" transform="translate( 54 -5 )" style="cursor: pointer;"><path id="kity_path_93" fill="rgba(255, 255, 255, 0)" stroke="none" d="M2,-6h16a4,4,0,0,1,4,4v14a4,4,0,0,1,-4,4h-16a4,4,0,0,1,-4,-4v-14a4,4,0,0,1,4,-4z"></path><path id="kity_path_92" fill="#666" stroke="none" d="M16.614,10.224h-1.278c-1.668,0-3.07-1.07-3.599-2.556h4.877c0.707,0,1.278-0.571,1.278-1.278V3.834 c0-0.707-0.571-1.278-1.278-1.278h-4.877C12.266,1.071,13.668,0,15.336,0h1.278c2.116,0,3.834,1.716,3.834,3.834V6.39 C20.448,8.508,18.73,10.224,16.614,10.224z M5.112,5.112c0-0.707,0.573-1.278,1.278-1.278h7.668c0.707,0,1.278,0.571,1.278,1.278 S14.765,6.39,14.058,6.39H6.39C5.685,6.39,5.112,5.819,5.112,5.112z M2.556,3.834V6.39c0,0.707,0.573,1.278,1.278,1.278h4.877 c-0.528,1.486-1.932,2.556-3.599,2.556H3.834C1.716,10.224,0,8.508,0,6.39V3.834C0,1.716,1.716,0,3.834,0h1.278 c1.667,0,3.071,1.071,3.599,2.556H3.834C3.129,2.556,2.556,3.127,2.556,3.834z"></path></a></g><g id="minder_node3" transform="matrix( 1 0 0 1 169 -223 )" opacity="1"><g id="node_expander2" transform="translate( -16 0 )" style="cursor: pointer;"><path id="kity_path_44" fill="white" stroke="gray" d="M6,0A6,6,0,1,1,-6,0A6,6,0,1,1,6,0"></path><path id="kity_path_45" fill="none" stroke="gray" d="M-4.5,0L4.5,0"></path></g><path id="node_outline3" fill="transparent" stroke="none" d="M-5,-11h49a5,5,0,0,1,5,5v12a5,5,0,0,1,-5,5h-49a5,5,0,0,1,-5,-5v-12a5,5,0,0,1,5,-5z" stroke-width="3"></path><g id="node_text3" transform="translate( 0 -1.7999999999999998 )" fill="black"><text id="kity_text_41" text-rendering="inherit" dominant-baseline="text-before-edge" font-size="12" dy="0" y="-6">Python</text></g></g></g></g></svg>